<?xml version="1.0" standalone="no"?>
<!DOCTYPE svg PUBLIC "-//W3C//DTD SVG 20010904//EN"
 "http://www.w3.org/TR/2001/REC-SVG-20010904/DTD/svg10.dtd">
<svg version="1.0" xmlns="http://www.w3.org/2000/svg"
 width="16.000000pt" height="16.000000pt" viewBox="0 0 16.000000 16.000000"
 preserveAspectRatio="xMidYMid meet">
<metadata>
Created by potrace 1.11, written by Peter Selinger 2001-2013
</metadata>
<g transform="translate(0.000000,16.000000) scale(0.005926,-0.005926)"
fill="#000000" stroke="none">
<path d="M1182 2688 c-542 -68 -1003 -475 -1138 -1005 -73 -289 -49 -588 69
-868 128 -301 401 -574 702 -702 349 -148 721 -148 1070 0 301 128 574 401
702 702 148 349 148 721 0 1070 -128 301 -401 574 -702 702 -227 96 -468 131
-703 101z m-271 -711 c162 -52 249 -147 249 -273 0 -79 -13 -121 -52 -168 -40
-48 -98 -75 -163 -76 -82 0 -93 28 -49 125 60 131 -4 232 -154 242 -56 4 -74
1 -111 -19 -62 -32 -84 -66 -89 -136 -8 -112 24 -141 291 -272 159 -77 196
-100 245 -148 32 -31 71 -84 87 -116 28 -55 30 -68 30 -166 0 -101 -2 -110
-33 -173 -54 -107 -146 -174 -277 -203 -129 -28 -312 -9 -425 44 -74 35 -155
112 -177 171 -35 92 -13 209 53 275 63 63 182 88 224 46 26 -26 25 -33 -4 -83
-64 -111 -38 -214 68 -269 58 -31 186 -32 236 -2 56 33 80 77 80 148 -1 115
-59 171 -280 270 -244 110 -334 198 -361 355 -35 196 87 378 292 436 66 18
251 14 320 -8z m886 -35 l21 -28 -43 -68 c-56 -86 -65 -132 -65 -327 l0 -160
32 3 c29 3 42 18 136 153 175 252 179 262 141 356 l-20 52 28 23 c27 22 35 23
215 24 l186 0 15 -42 c8 -24 18 -50 22 -60 5 -13 -3 -18 -45 -27 -61 -13 -98
-31 -127 -63 -19 -20 -323 -456 -323 -463 0 -1 19 -22 43 -46 28 -28 84 -118
156 -249 164 -298 160 -293 221 -250 32 23 35 20 69 -48 21 -42 22 -45 5 -63
-10 -11 -46 -33 -81 -51 -56 -27 -70 -30 -126 -26 -78 7 -133 34 -183 92 -22
24 -100 153 -174 286 -100 180 -142 246 -162 256 l-28 15 0 -220 c0 -251 -1
-247 88 -271 26 -7 50 -16 54 -19 5 -4 0 -31 -10 -61 l-17 -55 -247 -3 -248
-2 -15 37 c-35 82 -33 87 32 106 108 30 98 -24 101 534 1 378 -1 494 -11 513
-9 18 -29 29 -77 44 -36 10 -67 20 -69 23 -3 2 3 28 14 58 l18 55 227 0 226 0
21 -28z"/>
</g>
</svg>
